<svg xmlns="http://www.w3.org/2000/svg" viewBox="0 0 512 512" role="img" aria-label="WhatsGrupos">
  <defs>
    <linearGradient id="wgGrad" x1="0" y1="0" x2="1" y2="1">
      <stop offset="0" stop-color="#2BE372"/>
      <stop offset="1" stop-color="#0E9F66"/>
    </linearGradient>
  </defs>
  <rect width="512" height="512" rx="116" fill="url(#wgGrad)"/>
  <path fill="#ffffff" d="M118 96h276a44 44 0 0 1 44 44v168a44 44 0 0 1-44 44H214l-78 60a12 12 0 0 1-19-10v-50h-1a44 44 0 0 1-42-44V140a44 44 0 0 1 44-44z"/>
  <g fill="#0E9F66">
    <circle cx="190" cy="190" r="30"/>
    <path d="M142 286c0-30 21-52 48-52s48 22 48 52z"/>
    <circle cx="322" cy="190" r="30"/>
    <path d="M274 286c0-30 21-52 48-52s48 22 48 52z"/>
    <circle cx="256" cy="178" r="42" fill="#0E9F66" stroke="#ffffff" stroke-width="10"/>
    <path d="M192 292c0-38 28-66 64-66s64 28 64 66z" fill="#0E9F66" stroke="#ffffff" stroke-width="10"/>
  </g>
</svg>
